<svg width="40" height="40" fill="none" xmlns="http://www.w3.org/2000/svg"><path opacity=".5" d="M31.667 3.333H8.333a5.005 5.005 0 00-5 5V25a5.005 5.005 0 005 5h19.31l6.179 6.178A1.666 1.666 0 0036.667 35V8.333a5.005 5.005 0 00-5-5zm-18.334 15a1.667 1.667 0 110-3.333 1.667 1.667 0 010 3.333zm6.667 0A1.667 1.667 0 1120 15a1.667 1.667 0 010 3.334zm6.667 0a1.667 1.667 0 110-3.334 1.667 1.667 0 010 3.334z" fill="#fff"/><path d="M13.333 18.333a1.667 1.667 0 100-3.333 1.667 1.667 0 000 3.333zm6.667 0A1.667 1.667 0 1020 15a1.667 1.667 0 000 3.333zm6.667 0a1.667 1.667 0 100-3.333 1.667 1.667 0 000 3.333z" fill="#fff"/></svg>